<mxfile host="app.diagrams.net" agent="Mozilla/5.0 (Windows NT 10.0; Win64; x64) AppleWebKit/537.36 (KHTML, like Gecko) Chrome/140.0.0.0 Safari/537.36 Edg/140.0.0.0" version="28.2.4">
  <diagram name="Page-1" id="JUovkKYCvi2NKrRDeC8q">
    <mxGraphModel dx="1844" dy="540" grid="1" gridSize="10" guides="1" tooltips="1" connect="1" arrows="1" fold="1" page="1" pageScale="1" pageWidth="850" pageHeight="1100" math="0" shadow="0">
      <root>
        <mxCell id="0" />
        <mxCell id="1" parent="0" />
        <mxCell id="UWtmCfZB-Didg86jIDm0-3" value="" style="edgeStyle=orthogonalEdgeStyle;rounded=0;orthogonalLoop=1;jettySize=auto;html=1;" edge="1" parent="1" source="UWtmCfZB-Didg86jIDm0-1" target="UWtmCfZB-Didg86jIDm0-2">
          <mxGeometry relative="1" as="geometry" />
        </mxCell>
        <mxCell id="UWtmCfZB-Didg86jIDm0-11" value="&lt;font style=&quot;font-size: 9px;&quot;&gt;Graph embeddings&amp;nbsp;&lt;/font&gt;&lt;div&gt;&lt;font style=&quot;font-size: 9px;&quot;&gt;&amp;amp; summary&lt;/font&gt;&lt;/div&gt;" style="edgeLabel;html=1;align=center;verticalAlign=middle;resizable=0;points=[];" vertex="1" connectable="0" parent="UWtmCfZB-Didg86jIDm0-3">
          <mxGeometry x="-0.125" relative="1" as="geometry">
            <mxPoint as="offset" />
          </mxGeometry>
        </mxCell>
        <mxCell id="UWtmCfZB-Didg86jIDm0-5" value="" style="rounded=0;orthogonalLoop=1;jettySize=auto;html=1;edgeStyle=orthogonalEdgeStyle;" edge="1" parent="1" source="UWtmCfZB-Didg86jIDm0-2" target="UWtmCfZB-Didg86jIDm0-4">
          <mxGeometry relative="1" as="geometry" />
        </mxCell>
        <mxCell id="UWtmCfZB-Didg86jIDm0-1" value="Graph Neural Network" style="ellipse;whiteSpace=wrap;html=1;" vertex="1" parent="1">
          <mxGeometry x="25" y="240" width="120" height="80" as="geometry" />
        </mxCell>
        <mxCell id="UWtmCfZB-Didg86jIDm0-2" value="Large Language Model" style="ellipse;whiteSpace=wrap;html=1;" vertex="1" parent="1">
          <mxGeometry x="275" y="240" width="120" height="80" as="geometry" />
        </mxCell>
        <mxCell id="UWtmCfZB-Didg86jIDm0-6" value="" style="edgeStyle=orthogonalEdgeStyle;rounded=0;orthogonalLoop=1;jettySize=auto;html=1;" edge="1" parent="1" source="UWtmCfZB-Didg86jIDm0-4" target="UWtmCfZB-Didg86jIDm0-2">
          <mxGeometry relative="1" as="geometry" />
        </mxCell>
        <mxCell id="UWtmCfZB-Didg86jIDm0-15" value="&lt;font style=&quot;font-size: 9px;&quot;&gt;Natural-language query&amp;nbsp;&lt;/font&gt;&lt;div&gt;&lt;font style=&quot;font-size: 9px;&quot;&gt;&lt;font style=&quot;&quot;&gt;&amp;amp;&amp;nbsp;&lt;/font&gt;&lt;span style=&quot;background-color: light-dark(#ffffff, var(--ge-dark-color, #121212)); color: light-dark(rgb(0, 0, 0), rgb(255, 255, 255));&quot;&gt;response&lt;/span&gt;&lt;/font&gt;&lt;/div&gt;" style="edgeLabel;html=1;align=center;verticalAlign=middle;resizable=0;points=[];" vertex="1" connectable="0" parent="UWtmCfZB-Didg86jIDm0-6">
          <mxGeometry x="0.1307" y="-1" relative="1" as="geometry">
            <mxPoint x="4" y="1" as="offset" />
          </mxGeometry>
        </mxCell>
        <mxCell id="UWtmCfZB-Didg86jIDm0-4" value="User" style="ellipse;whiteSpace=wrap;html=1;" vertex="1" parent="1">
          <mxGeometry x="565" y="240" width="120" height="80" as="geometry" />
        </mxCell>
        <mxCell id="UWtmCfZB-Didg86jIDm0-9" value="" style="edgeStyle=orthogonalEdgeStyle;rounded=0;orthogonalLoop=1;jettySize=auto;html=1;" edge="1" parent="1" target="UWtmCfZB-Didg86jIDm0-1">
          <mxGeometry relative="1" as="geometry">
            <mxPoint x="-130" y="280" as="sourcePoint" />
          </mxGeometry>
        </mxCell>
        <mxCell id="UWtmCfZB-Didg86jIDm0-14" value="&lt;font style=&quot;font-size: 9px;&quot;&gt;Structured graph&amp;nbsp;&lt;/font&gt;&lt;div&gt;&lt;font style=&quot;font-size: 9px;&quot;&gt;(nodes, edges, features)&lt;/font&gt;&lt;/div&gt;" style="edgeLabel;html=1;align=center;verticalAlign=middle;resizable=0;points=[];" vertex="1" connectable="0" parent="UWtmCfZB-Didg86jIDm0-9">
          <mxGeometry x="-0.08" relative="1" as="geometry">
            <mxPoint x="9" as="offset" />
          </mxGeometry>
        </mxCell>
      </root>
    </mxGraphModel>
  </diagram>
</mxfile>
